<?xml version="1.0" encoding="UTF-8"?>
<svg version="1.1" xmlns="http://www.w3.org/2000/svg" width="32" height="32">
<path d="M0 0 C10.56 0 21.12 0 32 0 C32 10.56 32 21.12 32 32 C21.44 32 10.88 32 0 32 C0 21.44 0 10.88 0 0 Z " fill="#FCFBF9" transform="translate(0,0)"/>
<path d="M0 0 C3.75212276 2.01502889 5.63644095 3.45466142 8 7 C8.66624845 11.07463524 8.94496094 15.24356703 6.94921875 18.953125 C4.54480216 21.87530681 2.60173645 23.82706916 -1.20703125 24.23828125 C-8.24770268 24.43884011 -8.24770268 24.43884011 -12 22.25 C-15.47240802 18.34354097 -16.56188974 15.49241232 -16.4609375 10.1015625 C-15.60803882 6.21292275 -12.90176501 3.59354645 -10 1 C-6.78734554 -0.60632723 -3.48478188 -0.47931944 0 0 Z " fill="#C3812D" transform="translate(20,4)"/>
<path d="M0 0 C2.875 1.375 2.875 1.375 5 3 C5 3.66 5 4.32 5 5 C4.34 5 3.68 5 3 5 C2.67 6.32 2.34 7.64 2 9 C1.34 8.01 0.68 7.02 0 6 C-2.42521494 5.41810734 -2.42521494 5.41810734 -5.125 5.3125 C-6.03507813 5.24675781 -6.94515625 5.18101563 -7.8828125 5.11328125 C-8.58148438 5.07589844 -9.28015625 5.03851562 -10 5 C-10 5.66 -10 6.32 -10 7 C-8.35 7 -6.7 7 -5 7 C-5.20625 7.5775 -5.4125 8.155 -5.625 8.75 C-6.09530596 11.57183574 -5.60769874 12.66883683 -4 15 C-3.01 15.33 -2.02 15.66 -1 16 C-0.67 14.35 -0.34 12.7 0 11 C1.32 11.33 2.64 11.66 4 12 C4.66 10.02 5.32 8.04 6 6 C6.33 6 6.66 6 7 6 C7.125 13.75 7.125 13.75 6 16 C5.01 16 4.02 16 3 16 C2.67 16.99 2.34 17.98 2 19 C-0.77100394 20.38550197 -2.9334706 20.1877467 -6 20 C-6.99 19.34 -7.98 18.68 -9 18 C-9 17.01 -9 16.02 -9 15 C-9.99 14.67 -10.98 14.34 -12 14 C-12.8981289 6.36590437 -12.8981289 6.36590437 -10.875 3.2890625 C-7.38697351 0.1462053 -4.56679075 -0.77732608 0 0 Z " fill="#151C23" transform="translate(19,6)"/>
<path d="M0 0 C2.875 1.375 2.875 1.375 5 3 C5 3.66 5 4.32 5 5 C4.34 5 3.68 5 3 5 C2.67 6.32 2.34 7.64 2 9 C1.34 8.01 0.68 7.02 0 6 C-2.42521494 5.41810734 -2.42521494 5.41810734 -5.125 5.3125 C-6.03507813 5.24675781 -6.94515625 5.18101563 -7.8828125 5.11328125 C-8.58148438 5.07589844 -9.28015625 5.03851562 -10 5 C-10 5.66 -10 6.32 -10 7 C-8.35 7 -6.7 7 -5 7 C-5 7.99 -5 8.98 -5 10 C-5.99 10.495 -5.99 10.495 -7 11 C-7.33 11.99 -7.66 12.98 -8 14 C-8.66 14 -9.32 14 -10 14 C-10.66 11.03 -11.32 8.06 -12 5 C-5.7265343 -0.97472924 -5.7265343 -0.97472924 0 0 Z " fill="#3C413D" transform="translate(19,6)"/>
<path d="M0 0 C1.62418745 -0.08090971 3.24951745 -0.13914995 4.875 -0.1875 C5.77992187 -0.22230469 6.68484375 -0.25710938 7.6171875 -0.29296875 C8.79667969 -0.14794922 8.79667969 -0.14794922 10 0 C10.66 0.99 11.32 1.98 12 3 C12.33 2.01 12.66 1.02 13 0 C13.66 0 14.32 0 15 0 C15 2.31 15 4.62 15 7 C13.68 7 12.36 7 11 7 C10.34 8.32 9.68 9.64 9 11 C7.125 10.8125 7.125 10.8125 5 10 C3.75 7.4375 3.75 7.4375 3 5 C3.66 5 4.32 5 5 5 C5 4.01 5 3.02 5 2 C3.35 2 1.7 2 0 2 C0 1.34 0 0.68 0 0 Z " fill="#CCB462" transform="translate(9,11)"/>
<path d="M0 0 C1.051875 -0.02126953 1.051875 -0.02126953 2.125 -0.04296875 C4 0.1875 4 0.1875 6 2.1875 C5.40832031 2.21328125 4.81664063 2.2390625 4.20703125 2.265625 C0.39513671 2.5392357 -2.45553727 2.90343249 -5.875 4.6875 C-8.82161862 8.15411014 -9.85613851 11.83524651 -11 16.1875 C-11.33 16.1875 -11.66 16.1875 -12 16.1875 C-12.71920089 9.35509156 -12.71920089 9.35509156 -10.734375 6.1328125 C-7.38926282 2.21935602 -5.29162093 0.04863622 0 0 Z " fill="#EAC26C" transform="translate(16,3.8125)"/>
<path d="M0 0 C0.33 0 0.66 0 1 0 C1.125 7.75 1.125 7.75 0 10 C-0.99 10 -1.98 10 -3 10 C-3.33 10.66 -3.66 11.32 -4 12 C-5.32 11.34 -6.64 10.68 -8 10 C-7.34 8.35 -6.68 6.7 -6 5 C-4.68 5.33 -3.36 5.66 -2 6 C-1.34 4.02 -0.68 2.04 0 0 Z " fill="#2A231C" transform="translate(25,12)"/>
<path d="M0 0 C2.25 -0.3125 2.25 -0.3125 5 0 C7.3125 1.875 7.3125 1.875 9 5 C9.32334339 8.36174475 9.23525873 11.63449311 9 15 C8.01 15 7.02 15 6 15 C6 12.69 6 10.38 6 8 C5.67 8 5.34 8 5 8 C4.9175 7.236875 4.835 6.47375 4.75 5.6875 C3.85384206 2.47626739 2.78388975 1.70625501 0 0 Z " fill="#B77B2C" transform="translate(19,6)"/>
<path d="M0 0 C0.33 0 0.66 0 1 0 C1.185625 1.7015625 1.185625 1.7015625 1.375 3.4375 C1.684375 5.2009375 1.684375 5.2009375 2 7 C2.66 7.33 3.32 7.66 4 8 C4.33 8.99 4.66 9.98 5 11 C5.66 11.33 6.32 11.66 7 12 C7 12.66 7 13.32 7 14 C4.13755104 13.69054606 2.39393114 13.31514492 0.125 11.5 C-1.61354653 7.63656327 -0.72386867 4.08157275 0 0 Z " fill="#9D6222" transform="translate(6,13)"/>
<path d="M0 0 C0.33 0.99 0.66 1.98 1 3 C0.34 3 -0.32 3 -1 3 C-1.33 4.32 -1.66 5.64 -2 7 C-3.70884005 5.37660195 -5.37446717 3.70680947 -7 2 C-7 1.34 -7 0.68 -7 0 C-4.3333581 -1.33332095 -2.83319697 -0.67102033 0 0 Z " fill="#15202A" transform="translate(23,8)"/>
<path d="M0 0 C1.32 0 2.64 0 4 0 C4 0.99 4 1.98 4 3 C3.01 3.495 3.01 3.495 2 4 C1.67 4.99 1.34 5.98 1 7 C0.34 7 -0.32 7 -1 7 C-0.67 4.69 -0.34 2.38 0 0 Z " fill="#B58A36" transform="translate(10,13)"/>
<path d="M0 0 C0.66 0 1.32 0 2 0 C2 2.31 2 4.62 2 7 C0.68 7 -0.64 7 -2 7 C-2 6.34 -2 5.68 -2 5 C-1.34 5 -0.68 5 0 5 C0 3.35 0 1.7 0 0 Z " fill="#E5C567" transform="translate(22,11)"/>
<path d="M0 0 C6.0546875 -0.1953125 6.0546875 -0.1953125 8 0 C8.66 0.66 9.32 1.32 10 2 C6.7 2.33 3.4 2.66 0 3 C0 2.01 0 1.02 0 0 Z " fill="#EABE53" transform="translate(12,4)"/>
<path d="M0 0 C0.66 0.66 1.32 1.32 2 2 C0.71034824 3.37562854 -0.62689293 4.70766393 -2 6 C-2.66 6 -3.32 6 -4 6 C-3.67 4.35 -3.34 2.7 -3 1 C-2.01 0.67 -1.02 0.34 0 0 Z " fill="#D9A33F" transform="translate(25,21)"/>
<path d="M0 0 C0.33 0 0.66 0 1 0 C1 2.64 1 5.28 1 8 C0.01 8 -0.98 8 -2 8 C-1.125 1.125 -1.125 1.125 0 0 Z " fill="#975012" transform="translate(27,13)"/>
</svg>
